<svg width="32" height="32" viewBox="0 0 32 32" fill="none" xmlns="http://www.w3.org/2000/svg">
<path d="M3.69341 13.3334C3.12008 13.3334 2.66675 12.88 2.66675 12.3067V9.22669C2.66675 5.61335 5.61341 2.66669 9.22675 2.66669H12.3067C12.8801 2.66669 13.3334 3.12002 13.3334 3.69335C13.3334 4.26669 12.8801 4.72002 12.3067 4.72002H9.22675C6.73342 4.72002 4.72008 6.74669 4.72008 9.22669V12.3067C4.72008 12.88 4.25341 13.3334 3.69341 13.3334Z" fill="#3559E0"/>
<path d="M28.3067 13.3334C27.7467 13.3334 27.2801 12.88 27.2801 12.3067V9.22669C27.2801 6.73335 25.2534 4.72002 22.7734 4.72002H19.6934C19.1201 4.72002 18.6667 4.25335 18.6667 3.69335C18.6667 3.13335 19.1201 2.66669 19.6934 2.66669H22.7734C26.3867 2.66669 29.3334 5.61335 29.3334 9.22669V12.3067C29.3334 12.88 28.8801 13.3334 28.3067 13.3334Z" fill="#3559E0"/>
<path d="M22.7733 29.3333H20.92C20.36 29.3333 19.8933 28.88 19.8933 28.3067C19.8933 27.7467 20.3466 27.28 20.92 27.28H22.7733C25.2666 27.28 27.28 25.2533 27.28 22.7733V20.9333C27.28 20.3733 27.7333 19.9067 28.3066 19.9067C28.8666 19.9067 29.3333 20.36 29.3333 20.9333V22.7733C29.3333 26.3867 26.3866 29.3333 22.7733 29.3333Z" fill="#3559E0"/>
<path d="M12.3067 29.3334H9.22675C5.61341 29.3334 2.66675 26.3867 2.66675 22.7734V19.6934C2.66675 19.12 3.12008 18.6667 3.69341 18.6667C4.26675 18.6667 4.72008 19.12 4.72008 19.6934V22.7734C4.72008 25.2667 6.74675 27.28 9.22675 27.28H12.3067C12.8667 27.28 13.3334 27.7334 13.3334 28.3067C13.3334 28.88 12.8801 29.3334 12.3067 29.3334Z" fill="#3559E0"/>
<path d="M24.6134 14.9733H22.8001H9.20011H7.38677C6.81344 14.9733 6.36011 15.44 6.36011 16C6.36011 16.56 6.81344 17.0267 7.38677 17.0267H9.20011H22.8001H24.6134C25.1868 17.0267 25.6401 16.56 25.6401 16C25.6401 15.44 25.1868 14.9733 24.6134 14.9733Z" fill="#3559E0"/>
<path d="M9.19995 18.5866V19.0266C9.19995 21.24 10.9866 23.0266 13.2 23.0266H18.8C21.0133 23.0266 22.8 21.24 22.8 19.0266V18.5866C22.8 18.4266 22.68 18.3066 22.52 18.3066H9.47995C9.31995 18.3066 9.19995 18.4266 9.19995 18.5866Z" fill="#3559E0"/>
<path d="M9.19995 13.4133V12.9733C9.19995 10.76 10.9866 8.97333 13.2 8.97333H18.8C21.0133 8.97333 22.8 10.76 22.8 12.9733V13.4133C22.8 13.5733 22.68 13.6933 22.52 13.6933H9.47995C9.31995 13.6933 9.19995 13.5733 9.19995 13.4133Z" fill="#3559E0"/>
</svg>
